Coordinates
version=1
nRows=23
nColumns=38
inDegrees=no

Units are S.I. units (second, meters, Newtons, ...)
If the header above contains a line with 'inDegrees', this indicates whether rotational values are in degrees (yes) or radians (no).

endheader
time	pelvis_tilt	pelvis_list	pelvis_rotation	pelvis_tx	pelvis_ty	pelvis_tz	hip_flexion_r	hip_adduction_r	hip_rotation_r	knee_angle_r	ankle_angle_r	subtalar_angle_r	mtp_angle_r	hip_flexion_l	hip_adduction_l	hip_rotation_l	knee_angle_l	ankle_angle_l	subtalar_angle_l	mtp_angle_l	lumbar_extension	lumbar_bending	lumbar_rotation	arm_flex_r	arm_add_r	arm_rot_r	elbow_flex_r	pro_sup_r	wrist_flex_r	wrist_dev_r	arm_flex_l	arm_add_l	arm_rot_l	elbow_flex_l	pro_sup_l	wrist_flex_l	wrist_dev_l
0.01000000	-0.10586615	0.09006851	0.02964745	-0.13156198	0.92698698	-0.01273597	0.19671320	-0.11998295	-0.04022264	0.30123702	0.22243904	0.00000000	0.00000000	0.12824910	0.10302899	-0.12359604	0.11487990	0.10427700	0.00000000	0.00000000	-0.13504789	-0.11488308	0.12893525	-0.20260521	-0.34741392	-0.82410417	1.55006011	1.57080000	0.00000000	0.00000000	-0.14920504	-0.27206316	-0.67223188	1.59099004	1.57080000	0.00000000	0.00000000
0.02000000	-0.10544376	0.08914977	0.02918394	-0.13139171	0.92709599	-0.01249675	0.19514094	-0.11836722	-0.03892222	0.29913888	0.22152808	0.00000000	0.00000000	0.12690387	0.10203295	-0.12193575	0.11342537	0.10387187	0.00000000	0.00000000	-0.13569695	-0.11432316	0.12944708	-0.20151051	-0.34658689	-0.82498696	1.54911515	1.57080000	0.00000000	0.00000000	-0.14800463	-0.27139591	-0.67378423	1.59027587	1.57080000	0.00000000	0.00000000
0.03000000	-0.10517155	0.08846963	0.02875479	-0.13124481	0.92717141	-0.01230063	0.19398639	-0.11714968	-0.03801123	0.29754640	0.22081861	0.00000000	0.00000000	0.12598605	0.10124734	-0.12091536	0.11247335	0.10366454	0.00000000	0.00000000	-0.13620599	-0.11395137	0.12985842	-0.20094766	-0.34609639	-0.82542273	1.54855611	1.57080000	0.00000000	0.00000000	-0.14747327	-0.27118970	-0.67472555	1.58993733	1.57080000	0.00000000	0.00000000
0.04000000	-0.10509574	0.08809412	0.02836878	-0.13112438	0.92720359	-0.01215691	0.19340156	-0.11643664	-0.03753159	0.29665705	0.22040765	0.00000000	0.00000000	0.12558981	0.10073823	-0.12065134	0.11211052	0.10368859	0.00000000	0.00000000	-0.13652430	-0.11383087	0.13014607	-0.20102313	-0.34600594	-0.82532396	1.54844905	1.57080000	0.00000000	0.00000000	-0.14773085	-0.27152241	-0.67497111	1.59005474	1.57080000	0.00000000	0.00000000
0.05000000	-0.10517554	0.08793911	0.02801771	-0.13101884	0.92720329	-0.01204732	0.19329273	-0.11608416	-0.03727863	0.29636945	0.22027935	0.00000000	0.00000000	0.12554343	0.10044131	-0.12083780	0.11209624	0.10384590	0.00000000	0.00000000	-0.13667962	-0.11390936	0.13034523	-0.20150167	-0.34616137	-0.82488613	1.54860784	1.57080000	0.00000000	0.00000000	-0.14846377	-0.27217043	-0.67484449	1.59046754	1.57080000	0.00000000	0.00000000
0.06000000	-0.10534291	0.08787533	0.02769545	-0.13091759	0.92718672	-0.01195071	0.19344396	-0.11588232	-0.03707538	0.29640537	0.22032894	0.00000000	0.00000000	0.12564011	0.10024270	-0.12113468	0.11217479	0.10403514	0.00000000	0.00000000	-0.13673315	-0.11408129	0.13050070	-0.20211790	-0.34638849	-0.82434084	1.54883931	1.57080000	0.00000000	0.00000000	-0.14932564	-0.27289392	-0.67466446	1.59097862	1.57080000	0.00000000	0.00000000
0.07000000	-0.10552922	0.08779758	0.02739835	-0.13081548	0.92716697	-0.01185523	0.19361188	-0.11566740	-0.03685913	0.29643833	0.22041017	0.00000000	0.00000000	0.12573260	0.10004203	-0.12134959	0.11220515	0.10420975	0.00000000	0.00000000	-0.13675734	-0.11423840	0.13065812	-0.20272663	-0.34657648	-0.82386681	1.54906415	1.57080000	0.00000000	0.00000000	-0.15011461	-0.27356761	-0.67455407	1.59145421	1.57080000	0.00000000	0.00000000
0.08000000	-0.10568535	0.08766429	0.02711769	-0.13070985	0.92715012	-0.01175802	0.19364135	-0.11537356	-0.03662710	0.29627448	0.22042660	0.00000000	0.00000000	0.12573628	0.09980083	-0.12142024	0.11212952	0.10435884	0.00000000	0.00000000	-0.13680796	-0.11432336	0.13086052	-0.20329159	-0.34667175	-0.82358088	1.54929551	1.57080000	0.00000000	0.00000000	-0.15076231	-0.27416503	-0.67449337	1.59183922	1.57080000	0.00000000	0.00000000
0.09000000	-0.10579812	0.08749854	0.02684395	-0.13059952	0.92713568	-0.01166119	0.19352299	-0.11502994	-0.03639122	0.29592849	0.22038028	0.00000000	0.00000000	0.12563135	0.09954577	-0.12136397	0.11194099	0.10448282	0.00000000	0.00000000	-0.13690009	-0.11435198	0.13111918	-0.20383515	-0.34668158	-0.82348620	1.54956431	1.57080000	0.00000000	0.00000000	-0.15128843	-0.27470344	-0.67444147	1.59214784	1.57080000	0.00000000	0.00000000
0.10000000	-0.10587374	0.08734811	0.02658218	-0.13048529	0.92712222	-0.01156940	0.19331948	-0.11470591	-0.03617565	0.29551629	0.22032696	0.00000000	0.00000000	0.12544629	0.09932312	-0.12124307	0.11168343	0.10459134	0.00000000	0.00000000	-0.13702555	-0.11437677	0.13138814	-0.20439751	-0.34668245	-0.82344431	1.54986814	1.57080000	0.00000000	0.00000000	-0.15175578	-0.27519824	-0.67440621	1.59243238	1.57080000	0.00000000	0.00000000
0.11000000	-0.10590424	0.08723992	0.02635653	-0.13036869	0.92711221	-0.01148816	0.19305669	-0.11444845	-0.03601683	0.29511610	0.22030297	0.00000000	0.00000000	0.12520893	0.09915330	-0.12111840	0.11142798	0.10470106	0.00000000	0.00000000	-0.13719050	-0.11442807	0.13158393	-0.20499161	-0.34677014	-0.82327208	1.55017306	1.57080000	0.00000000	0.00000000	-0.15222557	-0.27564542	-0.67443139	1.59273867	1.57080000	0.00000000	0.00000000
0.12000000	-0.10587206	0.08716787	0.02618383	-0.13025139	0.92710979	-0.01141973	0.19271912	-0.11425664	-0.03593096	0.29473819	0.22030127	0.00000000	0.00000000	0.12492609	0.09902371	-0.12101501	0.11122207	0.10482140	0.00000000	0.00000000	-0.13741216	-0.11449599	0.13165497	-0.20556990	-0.34697319	-0.82289426	1.55044143	1.57080000	0.00000000	0.00000000	-0.15272236	-0.27603083	-0.67454554	1.59307576	1.57080000	0.00000000	0.00000000
0.13000000	-0.10579648	0.08712032	0.02603684	-0.13013702	0.92711365	-0.01135902	0.19234254	-0.11410683	-0.03587564	0.29438733	0.22030148	0.00000000	0.00000000	0.12462665	0.09891631	-0.12095002	0.11107135	0.10494668	0.00000000	0.00000000	-0.13767096	-0.11457005	0.13164192	-0.20605700	-0.34723321	-0.82237277	1.55064971	1.57080000	0.00000000	0.00000000	-0.15322737	-0.27634898	-0.67473317	1.59342147	1.57080000	0.00000000	0.00000000
0.14000000	-0.10573141	0.08709533	0.02586151	-0.13002920	0.92711705	-0.01129706	0.19201798	-0.11397950	-0.03577987	0.29408943	0.22029888	0.00000000	0.00000000	0.12436710	0.09882277	-0.12095607	0.11096270	0.10506859	0.00000000	0.00000000	-0.13791155	-0.11466028	0.13164706	-0.20642670	-0.34747155	-0.82180664	1.55079254	1.57080000	0.00000000	0.00000000	-0.15370211	-0.27660760	-0.67494869	1.59375036	1.57080000	0.00000000	0.00000000
0.15000000	-0.10568353	0.08707707	0.02565005	-0.12992483	0.92711781	-0.01123153	0.19174878	-0.11385191	-0.03563251	0.29383685	0.22029806	0.00000000	0.00000000	0.12414247	0.09872783	-0.12102680	0.11087928	0.10519091	0.00000000	0.00000000	-0.13812707	-0.11475684	0.13172829	-0.20673367	-0.34765271	-0.82126676	1.55088970	1.57080000	0.00000000	0.00000000	-0.15411628	-0.27681202	-0.67514876	1.59405223	1.57080000	0.00000000	0.00000000
0.16000000	-0.10557794	0.08702910	0.02546472	-0.12981423	0.92712319	-0.01117000	0.19139615	-0.11369531	-0.03550367	0.29356640	0.22029778	0.00000000	0.00000000	0.12384929	0.09860614	-0.12108002	0.11079853	0.10532166	0.00000000	0.00000000	-0.13839699	-0.11481203	0.13184327	-0.20706380	-0.34778700	-0.82080993	1.55098906	1.57080000	0.00000000	0.00000000	-0.15446232	-0.27695388	-0.67532288	1.59433207	1.57080000	0.00000000	0.00000000
0.17000000	-0.10533521	0.08692800	0.02537288	-0.12969092	0.92714176	-0.01112119	0.19082278	-0.11349742	-0.03546498	0.29322430	0.22029583	0.00000000	0.00000000	0.12338450	0.09844641	-0.12102316	0.11069981	0.10545982	0.00000000	0.00000000	-0.13880870	-0.11478754	0.13190307	-0.20746120	-0.34789887	-0.82047814	1.55114273	1.57080000	0.00000000	0.00000000	-0.15475525	-0.27702043	-0.67550335	1.59460374	1.57080000	0.00000000	0.00000000
0.18000000	-0.10494402	0.08678409	0.02538848	-0.12955728	0.92717506	-0.01108730	0.19001822	-0.11327304	-0.03552560	0.29281678	0.22029764	0.00000000	0.00000000	0.12273689	0.09826267	-0.12083072	0.11057798	0.10560047	0.00000000	0.00000000	-0.13937996	-0.11469000	0.13185396	-0.20790778	-0.34800614	-0.82026658	1.55137129	1.57080000	0.00000000	0.00000000	-0.15501828	-0.27700953	-0.67573567	1.59488185	1.57080000	0.00000000	0.00000000
0.19000000	-0.10444797	0.08662467	0.02548100	-0.12942015	0.92721877	-0.01106537	0.18906511	-0.11304755	-0.03564845	0.29238537	0.22030742	0.00000000	0.00000000	0.12196626	0.09807887	-0.12054241	0.11044208	0.10574234	0.00000000	0.00000000	-0.14006859	-0.11455194	0.13170054	-0.20835926	-0.34812001	-0.82012483	1.55165664	1.57080000	0.00000000	0.00000000	-0.15526731	-0.27693298	-0.67603905	1.59517212	1.57080000	0.00000000	0.00000000
0.20000000	-0.10389581	0.08646900	0.02561308	-0.12928432	0.92726815	-0.01105216	0.18804601	-0.11283670	-0.03579686	0.29196187	0.22031654	0.00000000	0.00000000	0.12113511	0.09790992	-0.12021214	0.11030190	0.10588414	0.00000000	0.00000000	-0.14082345	-0.11439710	0.13147825	-0.20878560	-0.34824694	-0.82000306	1.55196771	1.57080000	0.00000000	0.00000000	-0.15550753	-0.27680724	-0.67639888	1.59546845	1.57080000	0.00000000	0.00000000
0.21000000	-0.10331212	0.08631989	0.02576214	-0.12915040	0.92732097	-0.01104661	0.18699702	-0.11264118	-0.03595715	0.29155215	0.22030955	0.00000000	0.00000000	0.12026943	0.09775724	-0.11986749	0.11015658	0.10602100	0.00000000	0.00000000	-0.14161826	-0.11422739	0.13122274	-0.20917809	-0.34838033	-0.81989563	1.55228659	1.57080000	0.00000000	0.00000000	-0.15573672	-0.27664150	-0.67678648	1.59576016	1.57080000	0.00000000	0.00000000
0.22000000	-0.10269684	0.08617185	0.02592123	-0.12901698	0.92737713	-0.01104938	0.18591494	-0.11245501	-0.03613060	0.29114254	0.22027982	0.00000000	0.00000000	0.11936028	0.09761770	-0.11950193	0.10999050	0.10614345	0.00000000	0.00000000	-0.14245454	-0.11403333	0.13095541	-0.20952686	-0.34849142	-0.81984586	1.55261205	1.57080000	0.00000000	0.00000000	-0.15594952	-0.27643543	-0.67717894	1.59603985	1.57080000	0.00000000	0.00000000
0.23000000	-0.10203930	0.08602176	0.02609305	-0.12888319	0.92743747	-0.01106147	0.18478279	-0.11227592	-0.03631814	0.29070965	0.22023378	0.00000000	0.00000000	0.11838626	0.09749223	-0.11909279	0.10977818	0.10623652	0.00000000	0.00000000	-0.14334511	-0.11380905	0.13067994	-0.20980618	-0.34854064	-0.81991036	1.55294737	1.57080000	0.00000000	0.00000000	-0.15614381	-0.27618802	-0.67756499	1.59630601	1.57080000	0.00000000	0.00000000
